<svg xmlns="http://www.w3.org/2000/svg" version="1.1" xmlns:xlink="http://www.w3.org/1999/xlink" xmlns:svgjs="http://svgjs.dev/svgjs" width="1500" height="1500" viewBox="0 0 1500 1500"><rect width="1500" height="1500" fill="#ffffff"></rect><g transform="matrix(0.6666666666666666,0,0,0.6666666666666666,249.39393939393938,644.2182245837785)"><svg viewBox="0 0 396 83" data-background-color="#ffffff" preserveAspectRatio="xMidYMid meet" height="314" width="1500" xmlns="http://www.w3.org/2000/svg" xmlns:xlink="http://www.w3.org/1999/xlink"><g id="tight-bounds" transform="matrix(1,0,0,1,0.2400000000000091,0.44213706789679463)"><svg viewBox="0 0 395.52 82.11572586420638" height="82.11572586420638" width="395.52"><g><svg viewBox="0 0 494.78976962216973 102.72557919373969" height="82.11572586420638" width="395.52"><g><rect width="3.1239911745600613" height="89.19731912625731" x="87.96779107965142" y="6.764130033741189" fill="#4d0204" opacity="1" stroke-width="0" stroke="transparent" fill-opacity="1" class="rect-yte-0" data-fill-palette-color="primary" rx="1%" id="yte-0" data-palette-color="#4d0204"></rect></g><g transform="matrix(1,0,0,1,99.26976962216976,14.197239960929295)"><svg viewBox="0 0 395.52 74.3310992718811" height="74.3310992718811" width="395.52"><g id="textblocktransform"><svg viewBox="0 0 395.52 74.3310992718811" height="74.3310992718811" width="395.52" id="textblock"><g><svg viewBox="0 0 395.52 34.64133316371963" height="34.64133316371963" width="395.52"><g transform="matrix(1,0,0,1,0,0)"><svg width="395.52" viewBox="2.13 -33.8 393.03000000000003 34.43" height="34.64133316371963" data-palette-color="#4d0204"><path d="M12.68 0.58L12.68 0.58Q10.38 0.58 8.46 0.2 6.55-0.18 5.05-0.73 3.55-1.28 2.55-1.83L2.55-1.83 2.13-5.95Q4.05-4.8 6.66-3.94 9.28-3.08 12.35-3.08L12.35-3.08Q16.05-3.08 17.82-4.39 19.6-5.7 19.6-8.33L19.6-8.33 19.6-8.72Q19.6-10.45 18.9-11.55 18.2-12.65 16.54-13.4 14.88-14.15 12.03-14.8L12.03-14.8Q8.43-15.65 6.26-16.81 4.1-17.98 3.14-19.73 2.18-21.48 2.18-24.08L2.18-24.08 2.18-24.3Q2.18-28.23 4.75-30.36 7.33-32.5 12.55-32.5L12.55-32.5Q15.98-32.5 18.39-31.8 20.8-31.1 22.33-30.25L22.33-30.25 22.7-26.45Q20.93-27.5 18.56-28.24 16.2-28.98 13.15-28.98L13.15-28.98Q10.73-28.98 9.22-28.4 7.73-27.83 7.05-26.75 6.38-25.68 6.38-24.15L6.38-24.15 6.38-24.05Q6.38-22.5 7.04-21.4 7.7-20.3 9.36-19.5 11.03-18.7 14.1-17.95L14.1-17.95Q17.63-17.13 19.75-16.05 21.88-14.98 22.84-13.25 23.8-11.53 23.8-8.75L23.8-8.75 23.8-8.22Q23.8-3.9 21.01-1.66 18.23 0.58 12.68 0.58ZM33.5 0L29.47 0 29.47-33.13 33.5-33.13 33.5 0ZM44.39 0L40.34 0 40.34-24.4 44.39-24.4 44.39 0ZM42.37-28.4L42.37-28.4Q41.12-28.4 40.51-29.06 39.89-29.73 39.89-30.88L39.89-30.88 39.89-31Q39.89-32.18 40.51-32.83 41.12-33.48 42.37-33.48L42.37-33.48Q43.62-33.48 44.24-32.83 44.87-32.18 44.87-31L44.87-31 44.87-30.88Q44.87-29.7 44.24-29.05 43.62-28.4 42.37-28.4ZM85.62 0L81.57 0 81.57-15.28Q81.57-17.2 81.08-18.61 80.59-20.03 79.48-20.8 78.37-21.58 76.49-21.58L76.49-21.58Q74.72-21.58 73.42-20.85 72.12-20.13 71.32-18.91 70.52-17.7 70.19-16.15L70.19-16.15 69.57-19.03 70.07-19.03Q70.47-20.6 71.42-21.95 72.37-23.3 73.99-24.13 75.62-24.95 78.02-24.95L78.02-24.95Q80.74-24.95 82.41-23.88 84.07-22.8 84.84-20.74 85.62-18.68 85.62-15.73L85.62-15.73 85.62 0ZM55.14 0L51.09 0 51.09-24.4 55.14-24.4 54.97-18.55 55.14-18.3 55.14 0ZM70.37 0L66.34 0 66.34-15.28Q66.34-17.2 65.86-18.61 65.37-20.03 64.27-20.8 63.17-21.58 61.29-21.58L61.29-21.58Q59.49-21.58 58.19-20.85 56.89-20.13 56.09-18.89 55.29-17.65 54.97-16.07L54.97-16.07 54.22-18.95 55.12-18.95Q55.49-20.6 56.42-21.96 57.34-23.33 58.93-24.14 60.52-24.95 62.79-24.95L62.79-24.95Q66.17-24.95 67.93-23.2 69.69-21.45 70.14-18.1L70.14-18.1Q70.27-17.6 70.32-17.01 70.37-16.43 70.37-15.85L70.37-15.85 70.37 0ZM126.42 0L122.37 0 122.37-15.28Q122.37-17.2 121.88-18.61 121.39-20.03 120.28-20.8 119.17-21.58 117.29-21.58L117.29-21.58Q115.52-21.58 114.22-20.85 112.92-20.13 112.12-18.91 111.31-17.7 110.99-16.15L110.99-16.15 110.37-19.03 110.87-19.03Q111.27-20.6 112.22-21.95 113.17-23.3 114.79-24.13 116.42-24.95 118.81-24.95L118.81-24.95Q121.54-24.95 123.2-23.88 124.87-22.8 125.64-20.74 126.42-18.68 126.42-15.73L126.42-15.73 126.42 0ZM95.94 0L91.89 0 91.89-24.4 95.94-24.4 95.77-18.55 95.94-18.3 95.94 0ZM111.17 0L107.14 0 107.14-15.28Q107.14-17.2 106.65-18.61 106.17-20.03 105.06-20.8 103.97-21.58 102.09-21.58L102.09-21.58Q100.29-21.58 98.99-20.85 97.69-20.13 96.89-18.89 96.09-17.65 95.77-16.07L95.77-16.07 95.02-18.95 95.92-18.95Q96.29-20.6 97.22-21.96 98.14-23.33 99.73-24.14 101.31-24.95 103.59-24.95L103.59-24.95Q106.97-24.95 108.73-23.2 110.49-21.45 110.94-18.1L110.94-18.1Q111.06-17.6 111.12-17.01 111.17-16.43 111.17-15.85L111.17-15.85 111.17 0ZM142.94 0.55L142.94 0.55Q137.36 0.55 134.54-2.18 131.71-4.9 131.71-9.98L131.71-9.98 131.71-14.33Q131.71-19.48 134.34-22.26 136.96-25.05 142.01-25.05L142.01-25.05Q145.41-25.05 147.69-23.79 149.96-22.53 151.11-20.2 152.26-17.88 152.26-14.65L152.26-14.65 152.26-13.75Q152.26-12.95 152.2-12.15 152.14-11.35 152.04-10.58L152.04-10.58 148.31-10.58Q148.36-11.78 148.38-12.85 148.39-13.93 148.39-14.83L148.39-14.83Q148.39-17.05 147.68-18.59 146.96-20.13 145.55-20.94 144.14-21.75 142.01-21.75L142.01-21.75Q138.86-21.75 137.29-19.93 135.71-18.1 135.71-14.7L135.71-14.7 135.71-12.38 135.74-11.88 135.74-9.55Q135.74-8.03 136.19-6.8 136.64-5.58 137.6-4.69 138.56-3.8 140.05-3.34 141.54-2.88 143.59-2.88L143.59-2.88Q145.96-2.88 148.01-3.5 150.06-4.13 151.86-5.2L151.86-5.2 151.49-1.7Q149.86-0.68 147.71-0.06 145.56 0.55 142.94 0.55ZM151.19-10.58L133.84-10.58 133.84-13.63 151.19-13.63 151.19-10.58ZM161.51-14.93L161.51-14.93 160.59-18.05 161.59-18.1Q162.39-21.2 164.34-22.99 166.29-24.78 169.51-24.78L169.51-24.78Q170.31-24.78 170.95-24.65 171.59-24.53 172.09-24.35L172.09-24.35 172.34-20.43Q171.71-20.63 170.95-20.75 170.19-20.88 169.26-20.88L169.26-20.88Q166.51-20.88 164.47-19.35 162.44-17.82 161.51-14.93ZM161.71 0L157.66 0 157.66-24.4 161.61-24.4 161.41-17.2 161.71-16.9 161.71 0ZM194.18 0L190.16 0 191.38-31.95 197.81-31.95 205.38-8.85 205.73-8.85 213.31-31.95 219.76-31.95 220.98 0 216.96 0 216.51-13.48 216.08-27.63 215.63-27.63 207.73-3.68 203.41-3.68 195.51-27.63 195.06-27.63 194.61-13.45 194.18 0ZM237.7 0.55L237.7 0.55Q232.13 0.55 229.3-2.18 226.48-4.9 226.48-9.98L226.48-9.98 226.48-14.33Q226.48-19.48 229.1-22.26 231.73-25.05 236.78-25.05L236.78-25.05Q240.18-25.05 242.45-23.79 244.73-22.53 245.88-20.2 247.03-17.88 247.03-14.65L247.03-14.65 247.03-13.75Q247.03-12.95 246.97-12.15 246.9-11.35 246.8-10.58L246.8-10.58 243.08-10.58Q243.13-11.78 243.14-12.85 243.15-13.93 243.15-14.83L243.15-14.83Q243.15-17.05 242.44-18.59 241.73-20.13 240.32-20.94 238.9-21.75 236.78-21.75L236.78-21.75Q233.63-21.75 232.05-19.93 230.48-18.1 230.48-14.7L230.48-14.7 230.48-12.38 230.5-11.88 230.5-9.55Q230.5-8.03 230.95-6.8 231.4-5.58 232.37-4.69 233.33-3.8 234.82-3.34 236.3-2.88 238.35-2.88L238.35-2.88Q240.73-2.88 242.78-3.5 244.83-4.13 246.63-5.2L246.63-5.2 246.25-1.7Q244.63-0.68 242.48-0.06 240.33 0.55 237.7 0.55ZM245.95-10.58L228.6-10.58 228.6-13.63 245.95-13.63 245.95-10.58ZM277.47 0.58L277.47 0.58Q271.55 0.58 268.59-2.75 265.62-6.08 265.62-12.2L265.62-12.2 265.62-19.78Q265.62-25.9 268.57-29.21 271.52-32.52 277.42-32.52L277.42-32.52Q279.32-32.52 280.89-32.18 282.45-31.83 283.67-31.28 284.9-30.73 285.75-30.13L285.75-30.13 286.1-26.28Q284.62-27.33 282.64-28.11 280.65-28.9 277.97-28.9L277.97-28.9Q273.95-28.9 271.9-26.51 269.85-24.13 269.85-19.73L269.85-19.73 269.85-12.35Q269.85-7.98 271.92-5.56 274-3.15 278.12-3.15L278.12-3.15Q280.77-3.15 282.81-3.93 284.85-4.7 286.35-5.83L286.35-5.83 286-1.88Q285.15-1.28 283.9-0.7 282.65-0.13 281.04 0.23 279.42 0.58 277.47 0.58ZM300.72 0.63L300.72 0.63Q295.47 0.63 292.76-2.21 290.05-5.05 290.05-10.38L290.05-10.38 290.05-14.1Q290.05-19.4 292.77-22.23 295.5-25.05 300.72-25.05L300.72-25.05Q305.97-25.05 308.68-22.23 311.4-19.4 311.4-14.1L311.4-14.1 311.4-10.38Q311.4-5.05 308.68-2.21 305.97 0.63 300.72 0.63ZM300.72-2.68L300.72-2.68Q303.97-2.68 305.66-4.6 307.35-6.53 307.35-10.15L307.35-10.15 307.35-14.33Q307.35-17.93 305.66-19.84 303.97-21.75 300.72-21.75L300.72-21.75Q297.5-21.75 295.8-19.84 294.1-17.93 294.1-14.33L294.1-14.33 294.1-10.15Q294.1-6.53 295.8-4.6 297.5-2.68 300.72-2.68ZM325.12-33.8L325.12-33.8Q326.99-33.8 328.48-33.46 329.97-33.13 331.22-32.63L331.22-32.63 331.62-29.45Q330.39-29.9 329.16-30.16 327.92-30.43 326.37-30.43L326.37-30.43Q324.49-30.43 323.36-29.94 322.22-29.45 321.73-28.56 321.24-27.68 321.24-26.43L321.24-26.43 321.24-26.3Q321.24-25.43 321.47-24.64 321.69-23.85 321.97-23.2L321.97-23.2 319.24-23.1 319.24-23.6Q318.47-24.2 317.88-25.28 317.29-26.35 317.29-27.78L317.29-27.78 317.29-27.9Q317.29-30.58 319.19-32.19 321.09-33.8 325.12-33.8ZM322.14 0L318.12 0 318.12-22.23 322.14-22.23 322.14 0ZM331.14-20.25L314.09-20.25 314.09-23.48 319.67-23.45 321.32-23.48 331.52-23.48 331.14-20.25ZM341.12-33.8L341.12-33.8Q342.99-33.8 344.48-33.46 345.97-33.13 347.22-32.63L347.22-32.63 347.62-29.45Q346.39-29.9 345.15-30.16 343.92-30.43 342.37-30.43L342.37-30.43Q340.49-30.43 339.35-29.94 338.22-29.45 337.73-28.56 337.24-27.68 337.24-26.43L337.24-26.43 337.24-26.3Q337.24-25.43 337.47-24.64 337.69-23.85 337.97-23.2L337.97-23.2 335.24-23.1 335.24-23.6Q334.47-24.2 333.88-25.28 333.29-26.35 333.29-27.78L333.29-27.78 333.29-27.9Q333.29-30.58 335.19-32.19 337.09-33.8 341.12-33.8ZM338.14 0L334.12 0 334.12-22.23 338.14-22.23 338.14 0ZM347.14-20.25L330.09-20.25 330.09-23.48 335.67-23.45 337.31-23.48 347.51-23.48 347.14-20.25ZM360.91 0.55L360.91 0.55Q355.34 0.55 352.51-2.18 349.69-4.9 349.69-9.98L349.69-9.98 349.69-14.33Q349.69-19.48 352.31-22.26 354.94-25.05 359.99-25.05L359.99-25.05Q363.39-25.05 365.66-23.79 367.94-22.53 369.09-20.2 370.24-17.88 370.24-14.65L370.24-14.65 370.24-13.75Q370.24-12.95 370.18-12.15 370.11-11.35 370.01-10.58L370.01-10.58 366.29-10.58Q366.34-11.78 366.35-12.85 366.36-13.93 366.36-14.83L366.36-14.83Q366.36-17.05 365.65-18.59 364.94-20.13 363.53-20.94 362.11-21.75 359.99-21.75L359.99-21.75Q356.84-21.75 355.26-19.93 353.69-18.1 353.69-14.7L353.69-14.7 353.69-12.38 353.71-11.88 353.71-9.55Q353.71-8.03 354.16-6.8 354.61-5.58 355.57-4.69 356.54-3.8 358.03-3.34 359.51-2.88 361.56-2.88L361.56-2.88Q363.94-2.88 365.99-3.5 368.04-4.13 369.84-5.2L369.84-5.2 369.46-1.7Q367.84-0.68 365.69-0.06 363.54 0.55 360.91 0.55ZM369.16-10.58L351.81-10.58 351.81-13.63 369.16-13.63 369.16-10.58ZM385.84 0.55L385.84 0.55Q380.26 0.55 377.44-2.18 374.61-4.9 374.61-9.98L374.61-9.98 374.61-14.33Q374.61-19.48 377.24-22.26 379.86-25.05 384.91-25.05L384.91-25.05Q388.31-25.05 390.59-23.79 392.86-22.53 394.01-20.2 395.16-17.88 395.16-14.65L395.16-14.65 395.16-13.75Q395.16-12.95 395.1-12.15 395.04-11.35 394.94-10.58L394.94-10.58 391.21-10.58Q391.26-11.78 391.27-12.85 391.29-13.93 391.29-14.83L391.29-14.83Q391.29-17.05 390.57-18.59 389.86-20.13 388.45-20.94 387.04-21.75 384.91-21.75L384.91-21.75Q381.76-21.75 380.19-19.93 378.61-18.1 378.61-14.7L378.61-14.7 378.61-12.38 378.64-11.88 378.64-9.55Q378.64-8.03 379.09-6.8 379.54-5.58 380.5-4.69 381.46-3.8 382.95-3.34 384.44-2.88 386.49-2.88L386.49-2.88Q388.86-2.88 390.91-3.5 392.96-4.13 394.76-5.2L394.76-5.2 394.39-1.7Q392.76-0.68 390.61-0.06 388.46 0.55 385.84 0.55ZM394.09-10.58L376.74-10.58 376.74-13.63 394.09-13.63 394.09-10.58Z" opacity="1" transform="matrix(1,0,0,1,0,0)" fill="#4d0204" class="wordmark-text-0" data-fill-palette-color="primary" id="text-0"></path></svg></g></svg></g><g transform="matrix(1,0,0,1,0,42.8193205316779)"><svg viewBox="0 0 232.209792 31.511778740203194" height="31.511778740203194" width="232.209792"><g transform="matrix(1,0,0,1,0,0)"><svg width="232.209792" viewBox="1.75 -33.48 310.01 42.08" height="31.511778740203194" data-palette-color="#b6a9a9"><path d="M10.93 0.55L10.93 0.55Q7.98 0.55 5.78-0.09 3.58-0.73 2.13-1.48L2.13-1.48 1.75-5.23Q3.58-4.28 5.76-3.58 7.95-2.88 10.73-2.88L10.73-2.88Q13.55-2.88 14.98-3.78 16.4-4.67 16.4-6.45L16.4-6.45 16.4-6.73Q16.4-7.88 15.86-8.63 15.33-9.38 13.93-9.95 12.53-10.53 9.95-11.1L9.95-11.1Q6.88-11.78 5.1-12.69 3.33-13.6 2.56-14.95 1.8-16.3 1.8-18.25L1.8-18.25 1.8-18.48Q1.8-21.68 4.03-23.33 6.25-24.98 10.73-24.98L10.73-24.98Q13.6-24.98 15.71-24.33 17.82-23.68 19.18-22.88L19.18-22.88 19.55-19.45Q17.93-20.4 15.83-21.03 13.73-21.65 11.1-21.65L11.1-21.65Q9.2-21.65 8.03-21.26 6.85-20.88 6.33-20.16 5.8-19.45 5.8-18.45L5.8-18.45 5.8-18.25Q5.8-17.15 6.33-16.39 6.85-15.63 8.21-15.06 9.58-14.5 12-13.98L12-13.98Q15.13-13.35 16.96-12.48 18.8-11.6 19.6-10.26 20.4-8.93 20.4-6.83L20.4-6.83 20.4-6.4Q20.4-2.95 18-1.2 15.6 0.55 10.93 0.55ZM29.5-33.13L29.5 0 25.47 0 25.47-33.13 29.5-33.13ZM40.39-24.4L40.39 0 36.34 0 36.34-24.4 40.39-24.4ZM38.37-28.4L38.37-28.4Q37.12-28.4 36.51-29.06 35.89-29.73 35.89-30.88L35.89-30.88 35.89-31Q35.89-32.18 36.51-32.83 37.12-33.48 38.37-33.48L38.37-33.48Q39.62-33.48 40.24-32.83 40.87-32.18 40.87-31L40.87-31 40.87-30.88Q40.87-29.7 40.24-29.05 39.62-28.4 38.37-28.4ZM81.62-15.73L81.62 0 77.57 0 77.57-15.28Q77.57-17.2 77.08-18.61 76.59-20.03 75.48-20.8 74.37-21.58 72.49-21.58L72.49-21.58Q70.72-21.58 69.42-20.85 68.12-20.13 67.32-18.91 66.52-17.7 66.19-16.15L66.19-16.15 65.57-19.03 66.07-19.03Q66.47-20.6 67.42-21.95 68.37-23.3 69.99-24.13 71.62-24.95 74.02-24.95L74.02-24.95Q76.74-24.95 78.41-23.88 80.07-22.8 80.84-20.74 81.62-18.68 81.62-15.73L81.62-15.73ZM51.14-18.3L51.14 0 47.09 0 47.09-24.4 51.14-24.4 50.97-18.55 51.14-18.3ZM66.37-15.85L66.37 0 62.34 0 62.34-15.28Q62.34-17.2 61.86-18.61 61.37-20.03 60.27-20.8 59.17-21.58 57.29-21.58L57.29-21.58Q55.49-21.58 54.19-20.85 52.89-20.13 52.09-18.89 51.29-17.65 50.97-16.07L50.97-16.07 50.22-18.95 51.12-18.95Q51.49-20.6 52.42-21.96 53.34-23.33 54.93-24.14 56.52-24.95 58.79-24.95L58.79-24.95Q62.17-24.95 63.93-23.2 65.69-21.45 66.14-18.1L66.14-18.1Q66.27-17.6 66.32-17.01 66.37-16.43 66.37-15.85L66.37-15.85ZM107.89 0.53L107.89 0.53Q103.49 0.53 101.19-2.2 98.89-4.93 98.89-10.15L98.89-10.15 98.89-14.18Q98.89-19.43 101.21-22.19 103.54-24.95 108.06-24.95L108.06-24.95Q110.31-24.95 111.96-24.19 113.61-23.43 114.64-22.05 115.66-20.68 116.01-18.8L116.01-18.8 117.34-18.8 116.14-15.08Q116.06-17.23 115.18-18.69 114.29-20.15 112.78-20.9 111.26-21.65 109.31-21.65L109.31-21.65Q106.21-21.65 104.58-19.85 102.94-18.05 102.94-14.55L102.94-14.55 102.94-9.9Q102.94-6.45 104.58-4.65 106.21-2.85 109.31-2.85L109.31-2.85Q111.16-2.85 112.59-3.56 114.01-4.28 114.95-5.54 115.89-6.8 116.24-8.4L116.24-8.4 117.24-5.5 116.04-5.5Q115.69-3.85 114.7-2.48 113.71-1.1 112.05-0.29 110.39 0.53 107.89 0.53ZM120.09-33.13L120.09 0 116.04 0 116.21-5.9 116.14-7.2 116.14-17.4 116.16-18.25 116.06-25.18 116.06-33.13 120.09-33.13ZM136.94 0.55L136.94 0.55Q131.36 0.55 128.54-2.18 125.71-4.9 125.71-9.98L125.71-9.98 125.71-14.33Q125.71-19.48 128.34-22.26 130.96-25.05 136.01-25.05L136.01-25.05Q139.41-25.05 141.69-23.79 143.96-22.53 145.11-20.2 146.26-17.88 146.26-14.65L146.26-14.65 146.26-13.75Q146.26-12.95 146.2-12.15 146.14-11.35 146.04-10.58L146.04-10.58 142.31-10.58Q142.36-11.78 142.37-12.85 142.39-13.93 142.39-14.83L142.39-14.83Q142.39-17.05 141.67-18.59 140.96-20.13 139.55-20.94 138.14-21.75 136.01-21.75L136.01-21.75Q132.86-21.75 131.29-19.93 129.71-18.1 129.71-14.7L129.71-14.7 129.71-12.38 129.74-11.88 129.74-9.55Q129.74-8.03 130.19-6.8 130.64-5.58 131.6-4.69 132.56-3.8 134.05-3.34 135.54-2.88 137.59-2.88L137.59-2.88Q139.96-2.88 142.01-3.5 144.06-4.13 145.86-5.2L145.86-5.2 145.49-1.7Q143.86-0.68 141.71-0.06 139.56 0.55 136.94 0.55ZM145.19-13.63L145.19-10.58 127.84-10.58 127.84-13.63 145.19-13.63ZM155.81-33.13L155.81 0 151.78 0 151.78-33.13 155.81-33.13ZM166.71-24.4L166.71 0 162.66 0 162.66-24.4 166.71-24.4ZM164.68-28.4L164.68-28.4Q163.43-28.4 162.82-29.06 162.21-29.73 162.21-30.88L162.21-30.88 162.21-31Q162.21-32.18 162.82-32.83 163.43-33.48 164.68-33.48L164.68-33.48Q165.93-33.48 166.56-32.83 167.18-32.18 167.18-31L167.18-31 167.18-30.88Q167.18-29.7 166.56-29.05 165.93-28.4 164.68-28.4ZM182.8 0.55L182.8 0.55Q177.55 0.55 174.99-2.29 172.43-5.13 172.43-10.33L172.43-10.33 172.43-14.13Q172.43-19.35 175-22.16 177.58-24.98 182.8-24.98L182.8-24.98Q184.35-24.98 185.63-24.69 186.9-24.4 187.92-23.94 188.93-23.48 189.63-22.98L189.63-22.98 189.98-19.45Q188.8-20.35 187.19-20.98 185.58-21.6 183.4-21.6L183.4-21.6Q179.9-21.6 178.19-19.66 176.48-17.73 176.48-14.03L176.48-14.03 176.48-10.43Q176.48-6.8 178.19-4.85 179.9-2.9 183.4-2.9L183.4-2.9Q185.65-2.9 187.29-3.53 188.93-4.15 190.2-5.05L190.2-5.05 189.83-1.48Q188.73-0.73 186.95-0.09 185.18 0.55 182.8 0.55ZM199.23-24.4L199.23 0 195.18 0 195.18-24.4 199.23-24.4ZM197.2-28.4L197.2-28.4Q195.95-28.4 195.34-29.06 194.73-29.73 194.73-30.88L194.73-30.88 194.73-31Q194.73-32.18 195.34-32.83 195.95-33.48 197.2-33.48L197.2-33.48Q198.45-33.48 199.08-32.83 199.7-32.18 199.7-31L199.7-31 199.7-30.88Q199.7-29.7 199.08-29.05 198.45-28.4 197.2-28.4ZM215.62 0.63L215.62 0.63Q210.37 0.63 207.66-2.21 204.95-5.05 204.95-10.38L204.95-10.38 204.95-14.1Q204.95-19.4 207.67-22.23 210.4-25.05 215.62-25.05L215.62-25.05Q220.87-25.05 223.59-22.23 226.3-19.4 226.3-14.1L226.3-14.1 226.3-10.38Q226.3-5.05 223.59-2.21 220.87 0.63 215.62 0.63ZM215.62-2.68L215.62-2.68Q218.87-2.68 220.56-4.6 222.25-6.53 222.25-10.15L222.25-10.15 222.25-14.33Q222.25-17.93 220.56-19.84 218.87-21.75 215.62-21.75L215.62-21.75Q212.4-21.75 210.7-19.84 209-17.93 209-14.33L209-14.33 209-10.15Q209-6.53 210.7-4.6 212.4-2.68 215.62-2.68ZM231.62-8.78L231.62-24.4 235.65-24.4 235.65-9.22Q235.65-7.3 236.18-5.86 236.72-4.42 237.94-3.64 239.17-2.85 241.25-2.85L241.25-2.85Q243.19-2.85 244.59-3.56 246-4.28 246.88-5.53 247.77-6.78 248.09-8.35L248.09-8.35 248.82-5.48 247.94-5.48Q247.57-3.83 246.57-2.46 245.57-1.1 243.88-0.29 242.19 0.53 239.72 0.53L239.72 0.53Q236.84 0.53 235.06-0.56 233.27-1.65 232.44-3.74 231.62-5.83 231.62-8.78L231.62-8.78ZM247.92-6.1L247.92-24.4 251.97-24.4 251.97 0 247.92 0 248.09-5.85 247.92-6.1ZM266.19 0.55L266.19 0.55Q263.24 0.55 261.04-0.09 258.84-0.73 257.39-1.48L257.39-1.48 257.02-5.23Q258.84-4.28 261.03-3.58 263.22-2.88 265.99-2.88L265.99-2.88Q268.82-2.88 270.24-3.78 271.67-4.67 271.67-6.45L271.67-6.45 271.67-6.73Q271.67-7.88 271.13-8.63 270.59-9.38 269.19-9.95 267.79-10.53 265.22-11.1L265.22-11.1Q262.14-11.78 260.37-12.69 258.59-13.6 257.83-14.95 257.07-16.3 257.07-18.25L257.07-18.25 257.07-18.48Q257.07-21.68 259.29-23.33 261.52-24.98 265.99-24.98L265.99-24.98Q268.87-24.98 270.98-24.33 273.09-23.68 274.44-22.88L274.44-22.88 274.82-19.45Q273.19-20.4 271.09-21.03 268.99-21.65 266.37-21.65L266.37-21.65Q264.47-21.65 263.29-21.26 262.12-20.88 261.59-20.16 261.07-19.45 261.07-18.45L261.07-18.45 261.07-18.25Q261.07-17.15 261.59-16.39 262.12-15.63 263.48-15.06 264.84-14.5 267.27-13.98L267.27-13.98Q270.39-13.35 272.23-12.48 274.07-11.6 274.87-10.26 275.67-8.93 275.67-6.83L275.67-6.83 275.67-6.4Q275.67-2.95 273.27-1.2 270.87 0.55 266.19 0.55ZM284.76-33.13L284.76 0 280.74 0 280.74-33.13 284.76-33.13ZM293.44-24.4L300.09-3.78 302.41-3.78 300.29-2.85 307.59-24.4 311.76-24.4 300.29 8.6 296.19 8.6 300.04-2.55 301.81-1 297.21-1 289.24-24.4 293.44-24.4Z" opacity="1" transform="matrix(1,0,0,1,0,0)" fill="#b6a9a9" class="slogan-text-1" data-fill-palette-color="secondary" id="text-1"></path></svg></g></svg></g></svg></g></svg></g><g><svg viewBox="0 0 79.78980371169314 102.72557919373969" height="102.72557919373969" width="79.78980371169314"><g><svg xmlns="http://www.w3.org/2000/svg" xmlns:xlink="http://www.w3.org/1999/xlink" xml:space="preserve" version="1.1" style="shape-rendering:geometricPrecision;text-rendering:geometricPrecision;image-rendering:optimizeQuality;" viewBox="0.0026648049281070563 0.002606755548280937 557.2118489508787 717.383766526363" x="0" y="0" fill-rule="evenodd" clip-rule="evenodd" id="icon-0" width="79.78980371169314" height="102.72557919373969" class="icon-icon-0" data-fill-palette-color="accent"><g fill="#cd0001" data-fill-palette-color="accent"><path class="" d="M88.86 23.36C80.64 2.3 112.65-10.18 120.87 10.85 153.72 94.17 164.98 212.69 116.88 292.33 78.74 355.44 57.36 399.42 45.99 440.22 183.57 501.75 373.67 501.77 511.24 440.25 499.87 399.44 478.48 355.46 440.34 292.33 392.24 212.69 403.5 94.17 436.35 10.85 444.56-10.18 476.57 2.3 468.35 23.36 439.52 96.47 427.38 204.37 469.78 274.58 579.96 456.92 558.1 506.2 549.65 700.97 549.24 710.44 541.23 717.78 531.76 717.37 522.3 716.97 514.95 708.96 515.36 699.49 518.43 628.84 529.09 543.4 518.79 475.46 454.86 505.61 373.35 541.63 330.42 598.56 306.85 629.82 301.45 658.78 300.39 696.82H260.38C259.27 658.36 253.82 629.35 229.81 597.86 188.06 543.08 101.43 501.43 38.58 474.48 28.03 542.62 38.77 628.58 41.85 699.49 42.26 708.96 34.92 716.97 25.45 717.37 15.99 717.78 7.97 710.44 7.57 700.97-0.88 506.2-22.75 456.92 87.43 274.58 129.84 204.37 117.7 96.47 88.86 23.36M277.94 270.61C288.88 270.61 297.74 279.47 297.74 290.4S288.88 310.19 277.94 310.19C267.01 310.19 258.15 301.33 258.15 290.4S267.01 270.61 277.94 270.61" fill="#cd0001" fill-rule="nonzero" data-fill-palette-color="accent"></path></g></svg></g></svg></g></svg></g><defs></defs></svg><rect width="395.52" height="82.11572586420638" fill="none" stroke="none" visibility="hidden"></rect></g></svg></g></svg>